Chapakala19-bckp.glyphspackage
{
glyphname = quotesingle;
layers = (
{
layerId = m01;
shapes = (
{
closed = 1;
nodes = (
(66,785,o),
(66,767,qs),
(66,761,o),
(68,726,o),
(70,680,o),
(73,628,o),
(78,582,o),
(80,546,o),
(81,541,qs),
(82,532,o),
(84,516,o),
(89,502,o),
(100,494,o),
(112,494,qs),
(125,494,o),
(137,501,o),
(141,514,o),
(143,530,o),
(144,539,qs),
(145,545,o),
(148,580,o),
(151,627,o),
(154,678,o),
(157,725,o),
(159,761,o),
(159,767,qs),
(159,788,o),
(139,815,o),
(112,815,qs),
(85,815,o)
);
}
);
userData = {
assembly = "SVTCA[0]	/* SetFreedomAndProjectionVectorToAxis */
PUSHW[ ]	/* 1 value pushed */
0
MDAP[1]	/* MoveDirectAbsPt */
IUP[0]	/* InterpolateUntPts */
IUP[1]	/* InterpolateUntPts */";
};
width = 226;
}
);
note = quotesingle;
unicode = 39;
}
{
glyphname = parenright;
layers = (
{
layerId = m01;
shapes = (
{
closed = 1;
nodes = (
(274,554,o),
(208,669,o),
(117,773,o),
(61,823,q),
(61,790,l),
(118,712,o),
(187,593,o),
(223,492,o),
(234,398,o),
(234,346,qs),
(234,275,o),
(215,156,o),
(173,50,o),
(107,-51,o),
(61,-103,q),
(61,-131,l),
(116,-82,o),
(208,23,o),
(274,139,o),
(310,271,o),
(310,346,qs),
(310,424,o)
);
}
);
width = 364;
}
);
note = parenright;
unicode = 41;
}
{
glyphname = asterisk;
layers = (
{
layerId = m01;
shapes = (
{
closed = 1;
nodes = (
(166,378,o),
(187,378,qs),
(205,378,o),
(236,399,o),
(242,419,qs),
(243,424,o),
(255,453,o),
(268,489,o),
(285,529,o),
(293,545,q),
(300,529,o),
(314,489,o),
(330,453,o),
(344,423,o),
(347,418,qs),
(358,398,o),
(390,378,o),
(405,378,qs),
(425,378,o),
(449,411,o),
(449,432,qs),
(449,457,o),
(418,495,o),
(375,525,o),
(333,552,o),
(320,568,q),
(333,575,o),
(373,581,o),
(416,581,o),
(458,578,o),
(473,578,qs),
(494,578,o),
(523,617,o),
(523,636,qs),
(523,660,o),
(490,689,o),
(467,689,qs),
(444,689,o),
(406,661,o),
(369,628,o),
(332,601,o),
(311,601,q),
(311,624,o),
(322,664,o),
(335,703,o),
(346,743,o),
(346,765,qs),
(346,788,o),
(315,820,o),
(293,820,qs),
(268,820,o),
(241,782,o),
(241,760,qs),
(241,739,o),
(250,703,o),
(263,667,o),
(272,626,o),
(272,601,q),
(270,601,ls),
(268,601,o),
(258,606,o),
(245,612,o),
(233,619,o),
(230,621,qs),
(217,630,o),
(190,653,o),
(161,674,o),
(129,689,o),
(111,689,qs),
(88,689,o),
(63,660,o),
(63,639,qs),
(63,618,o),
(90,578,o),
(114,578,qs),
(160,578,o),
(216,576,o),
(247,573,o),
(260,570,o),
(262,569,q),
(262,568,l),
(247,549,o),
(204,521,o),
(163,492,o),
(134,455,o),
(134,428,qs),
(134,407,o)
);
}
);
userData = {
assembly = "PUSHW[ ]	/* 4 values pushed */
44 4 28 4
CALL[ ]	/* CallFunction */
NPUSHW[ ]	/* 31 values pushed */
6 44 22 44 38 44 54 44 70 44 86 44 102 44 118 44 134 44 150 44 166 44 182 44 198 44 214 44 230 44 15
DELTAP1[ ]	/* DeltaExceptionP1 */
NPUSHW[ ]	/* 3 values pushed */
245 44 1
DELTAP1[ ]	/* DeltaExceptionP1 */
NPUSHW[ ]	/* 3 values pushed */
5 44 1
DELTAP2[ ]	/* DeltaExceptionP2 */
PUSHW[ ]	/* 3 values pushed */
76 28 44
SRP1[ ]	/* SetRefPoint1 */
SRP2[ ]	/* SetRefPoint2 */
IP[ ]	/* InterpolatePts */
SVTCA[0]	/* SetFreedomAndProjectionVectorToAxis */
PUSHW[ ]	/* 1 value pushed */
36
MDAP[1]	/* MoveDirectAbsPt */
PUSHW[ ]	/* 4 values pushed */
27 2 5 4
CALL[ ]	/* CallFunction */
PUSHW[ ]	/* 1 value pushed */
27
SRP0[ ]	/* SetRefPoint0 */
PUSHW[ ]	/* 1 value pushed */
44
MDRP[10000]	/* MoveDirectRelPt */
IUP[0]	/* InterpolateUntPts */
IUP[1]	/* InterpolateUntPts */";
};
width = 555;
}
);
note = asterisk;
unicode = 42;
}
{
glyphname = hyphen;
layers = (
{
layerId = m01;
shapes = (
{
closed = 1;
nodes = (
(48,225,l),
(266,225,l),
(266,291,l),
(48,291,l)
);
}
);
width = 313;
}
);
note = hyphen;
unicode = 45;
}
{
glyphname = period;
layers = (
{
layerId = m01;
shapes = (
{
closed = 1;
nodes = (
(125,-17,o),
(154,-17,qs),
(183,-17,o),
(224,23,o),
(224,52,qs),
(224,82,o),
(183,123,o),
(154,123,qs),
(125,123,o),
(86,81,o),
(86,52,qs),
(86,23,o)
);
}
);
width = 309;
}
);
note = period;
unicode = 46;
}
{
glyphname = five;
layers = (
{
layerId = m01;
shapes = (
{
closed = 1;
nodes = (
(89,54,o),
(150,8,o),
(227,-16,o),
(268,-16,qs),
(328,-16,o),
(431,22,o),
(506,93,o),
(549,194,o),
(549,256,qs),
(549,309,o),
(509,399,o),
(440,465,o),
(346,502,o),
(294,502,qs),
(262,502,o),
(211,490,o),
(184,482,qs),
(176,479,o),
(148,470,o),
(138,468,q),
(154,685,l),
(161,685,l),
(199,679,o),
(272,671,o),
(310,671,qs),
(362,671,o),
(454,702,o),
(485,745,q),
(488,748,o),
(505,776,o),
(505,785,qs),
(505,788,o),
(502,788,qs),
(496,788,o),
(483,783,o),
(477,780,qs),
(451,766,o),
(384,759,o),
(355,759,qs),
(308,759,o),
(220,771,o),
(170,779,qs),
(158,781,o),
(142,784,o),
(129,786,q),
(123,698,o),
(110,526,o),
(105,438,qs),
(104,431,o),
(95,418,o),
(90,412,qs),
(84,403,o),
(72,385,o),
(72,373,qs),
(72,364,o),
(83,351,o),
(92,351,qs),
(108,351,o),
(116,369,o),
(118,381,qs),
(121,392,o),
(127,413,o),
(136,419,qs),
(167,440,o),
(231,464,o),
(268,464,qs),
(318,464,o),
(385,428,o),
(427,367,o),
(444,287,o),
(444,244,qs),
(444,242,ls),
(444,204,o),
(423,125,o),
(385,59,o),
(327,17,o),
(289,17,qs),
(243,17,o),
(176,31,o),
(131,57,o),
(109,89,o),
(109,106,qs),
(109,117,o),
(123,130,o),
(135,135,qs),
(150,143,o),
(177,167,o),
(177,197,qs),
(177,226,o),
(139,255,o),
(113,255,qs),
(95,255,o),
(72,239,o),
(58,214,o),
(52,183,o),
(52,167,qs),
(52,123,o)
);
}
);
width = 615;
}
);
note = five;
unicode = 53;
}
{
glyphname = colon;
layers = (
{
layerId = m01;
shapes = (
{
closed = 1;
nodes = (
(125,401,o),
(153,401,qs),
(181,401,o),
(221,440,o),
(221,468,qs),
(221,497,o),
(181,537,o),
(153,537,qs),
(125,537,o),
(86,496,o),
(86,468,qs),
(86,440,o)
);
},
{
closed = 1;
nodes = (
(125,-17,o),
(153,-17,qs),
(181,-17,o),
(221,23,o),
(221,51,qs),
(221,80,o),
(181,118,o),
(153,118,qs),
(125,118,o),
(86,79,o),
(86,51,qs),
(86,23,o)
);
}
);
width = 309;
}
);
note = colon;
unicode = 58;
}
{
glyphname = equal;
layers = (
{
layerId = m01;
shapes = (
{
closed = 1;
nodes = (
(57,134,l),
(667,134,l),
(667,195,l),
(57,195,l)
);
},
{
closed = 1;
nodes = (
(57,403,l),
(667,403,l),
(667,466,l),
(57,466,l)
);
}
);
userData = {
assembly = "SVTCA[0]	/* SetFreedomAndProjectionVectorToAxis */
PUSHW[ ]	/* 4 values pushed */
0 1 1 4
CALL[ ]	/* CallFunction */
IUP[0]	/* InterpolateUntPts */
IUP[1]	/* InterpolateUntPts */";
};
width = 672;
}
);
note = equal;
unicode = 61;
}
{
glyphname = B;
layers = (
{
layerId = m01;
shapes = (
{
closed = 1;
nodes = (
(34,0,l),
(473,0,ls),
(521,0,o),
(619,27,o),
(699,81,o),
(748,161,o),
(748,214,qs),
(748,263,o),
(713,329,o),
(651,375,o),
(569,407,o),
(523,423,q),
(536,431,o),
(571,450,o),
(583,456,qs),
(608,468,o),
(653,495,o),
(686,530,o),
(705,580,o),
(705,618,qs),
(705,657,o),
(673,725,o),
(619,777,o),
(547,806,o),
(508,806,qs),
(34,806,l),
(34,778,l),
(103,778,ls),
(121,777,o),
(155,755,o),
(155,734,qs),
(155,66,ls),
(155,61,o),
(146,48,o),
(132,38,o),
(117,30,o),
(113,30,qs),
(34,30,l)
);
},
{
closed = 1;
nodes = (
(473,398,ls),
(475,398,o),
(490,395,o),
(494,394,qs),
(560,376,o),
(626,282,o),
(626,216,qs),
(626,180,o),
(607,114,o),
(568,63,o),
(509,31,o),
(468,31,qs),
(308,31,ls),
(297,31,o),
(266,52,o),
(266,66,qs),
(266,398,l)
);
},
{
closed = 1;
nodes = (
(499,768,o),
(554,734,o),
(586,669,o),
(586,616,qs),
(586,582,o),
(573,521,o),
(544,474,o),
(495,441,o),
(458,435,q),
(266,435,l),
(266,745,ls),
(266,756,o),
(281,768,o),
(302,776,o),
(323,778,o),
(328,778,qs),
(336,778,ls),
(345,779,o),
(369,779,o),
(374,779,qs),
(421,779,o)
);
}
);
width = 802;
}
);
note = B;
unicode = 66;
}
{
glyphname = P;
layers = (
{
layerId = m01;
shapes = (
{
closed = 1;
nodes = (
(34,0,l),
(411,0,l),
(411,30,l),
(309,30,ls),
(294,30,o),
(267,52,o),
(267,70,qs),
(267,369,l),
(460,369,ls),
(487,369,o),
(546,381,o),
(556,385,qs),
(592,400,o),
(648,436,o),
(683,483,o),
(702,545,o),
(702,588,qs),
(702,631,o),
(670,709,o),
(613,769,o),
(535,804,o),
(490,804,qs),
(34,804,l),
(34,779,l),
(103,779,ls),
(109,779,o),
(128,773,o),
(146,764,o),
(158,749,o),
(158,739,qs),
(158,70,ls),
(158,52,o),
(133,30,o),
(114,30,qs),
(34,30,l)
);
},
{
closed = 1;
nodes = (
(267,739,ls),
(267,754,o),
(290,769,o),
(322,778,o),
(356,779,o),
(366,779,qs),
(370,779,ls),
(422,779,o),
(503,763,o),
(559,722,o),
(587,651,o),
(587,595,qs),
(587,528,o),
(549,450,o),
(481,409,o),
(386,397,o),
(327,397,qs),
(267,397,l)
);
}
);
width = 741;
}
);
note = P;
unicode = 80;
}
{
glyphname = U;
layers = (
{
layerId = m01;
shapes = (
{
closed = 1;
nodes = (
(88,780,ls),
(106,780,o),
(138,756,o),
(138,735,qs),
(138,182,ls),
(138,123,o),
(193,45,o),
(281,1,o),
(390,-17,o),
(446,-17,qs),
(502,-17,o),
(609,15,o),
(693,77,o),
(744,169,o),
(744,231,qs),
(744,660,ls),
(744,725,o),
(805,778,o),
(859,780,q),
(859,805,l),
(575,805,l),
(575,780,l),
(599,780,ls),
(630,780,o),
(669,762,o),
(691,729,o),
(698,681,o),
(698,650,qs),
(698,234,ls),
(698,181,o),
(657,107,o),
(591,58,o),
(505,35,o),
(460,35,qs),
(423,35,o),
(348,56,o),
(287,96,o),
(247,159,o),
(247,202,qs),
(247,736,ls),
(247,760,o),
(274,779,o),
(292,780,qs),
(373,780,l),
(373,805,l),
(18,805,l),
(18,780,l)
);
}
);
width = 908;
}
);
note = U;
unicode = 85;
}
{
glyphname = asciicircum;
layers = (
{
layerId = m01;
shapes = (
{
closed = 1;
nodes = (
(99,362,l),
(172,362,l),
(351,662,l),
(528,362,l),
(595,362,l),
(362,762,l),
(341,762,l)
);
}
);
width = 672;
}
);
note = asciicircum;
unicode = 94;
}
{
glyphname = grave;
layers = (
{
layerId = m01;
shapes = (
{
closed = 1;
nodes = (
(108,757,o),
(82,777,o),
(59,777,qs),
(40,777,o),
(19,752,o),
(19,740,qs),
(19,724,o),
(46,697,o),
(59,690,q),
(216,589,l),
(244,589,ls),
(255,589,o),
(271,588,o),
(271,589,q),
(123,742,ls)
);
}
);
width = 369;
}
);
note = grave;
unicode = 96;
}
{
glyphname = d;
layers = (
{
layerId = m01;
shapes = (
{
closed = 1;
nodes = (
(65,116,o),
(118,40,o),
(200,-8,o),
(254,-8,qs),
(305,-8,o),
(391,57,o),
(423,106,q),
(441,0,l),
(611,0,l),
(611,28,l),
(598,28,o),
(564,32,o),
(534,44,o),
(514,67,o),
(514,86,qs),
(514,834,l),
(318,822,l),
(318,796,l),
(330,796,o),
(367,793,o),
(401,784,o),
(427,767,o),
(427,751,qs),
(427,425,l),
(394,477,o),
(311,532,o),
(261,532,qs),
(206,532,o),
(124,484,o),
(67,407,o),
(39,309,o),
(39,260,qs),
(39,212,o)
);
},
{
closed = 1;
nodes = (
(148,383,o),
(176,450,o),
(230,495,o),
(275,495,qs),
(319,495,o),
(377,451,o),
(414,385,o),
(430,305,o),
(430,270,qs),
(430,236,o),
(415,152,o),
(380,80,o),
(322,31,o),
(277,31,qs),
(231,31,o),
(176,81,o),
(148,154,o),
(139,236,o),
(139,270,qs),
(139,304,o)
);
}
);
userData = {
assembly = "SVTCA[0]	/* SetFreedomAndProjectionVectorToAxis */
PUSHW[ ]	/* 1 value pushed */
0
RCVT[ ]	/* ReadCVT */
IF[ ]	/* If */
PUSHW[ ]	/* 1 value pushed */
23
MDAP[1]	/* MoveDirectAbsPt */
ELSE[ ]	/* Else */
PUSHW[ ]	/* 2 values pushed */
23 6
MIAP[0]	/* MoveIndirectAbsPt */
EIF[ ]	/* EndIf */
PUSHW[ ]	/* 2 values pushed */
22 2
MIRP[10100]	/* MoveIndirectRelPt */
PUSHW[ ]	/* 1 value pushed */
38
MDRP[10000]	/* MoveDirectRelPt */
IUP[0]	/* InterpolateUntPts */
IUP[1]	/* InterpolateUntPts */";
};
width = 639;
}
);
note = d;
unicode = 100;
}
{
glyphname = f;
layers = (
{
layerId = m01;
shapes = (
{
closed = 1;
nodes = (
(20,0,l),
(331,0,l),
(331,30,l),
(244,30,ls),
(235,30,o),
(218,42,o),
(205,59,o),
(198,78,o),
(198,86,qs),
(198,481,l),
(331,481,l),
(331,518,l),
(198,518,l),
(198,526,l),
(198,565,ls),
(198,611,o),
(204,700,o),
(228,770,o),
(277,813,o),
(319,813,qs),
(345,812,o),
(375,795,o),
(375,782,qs),
(375,774,o),
(367,766,o),
(361,761,qs),
(353,756,o),
(339,738,o),
(339,720,qs),
(339,699,o),
(367,676,o),
(388,676,qs),
(418,676,o),
(440,714,o),
(440,741,qs),
(440,767,o),
(419,807,o),
(385,833,o),
(338,846,o),
(313,846,qs),
(247,846,o),
(170,781,o),
(128,682,o),
(114,568,o),
(113,518,q),
(25,518,l),
(25,481,l),
(113,481,l),
(113,73,ls),
(113,56,o),
(92,30,o),
(75,30,qs),
(20,30,l)
);
}
);
width = 368;
}
);
note = f;
unicode = 102;
}
{
glyphname = i;
layers = (
{
layerId = m01;
shapes = (
{
closed = 1;
nodes = (
(34,0,l),
(319,0,l),
(319,28,l),
(263,28,ls),
(242,28,o),
(219,54,o),
(219,82,qs),
(219,519,l),
(20,504,l),
(21,476,l),
(39,476,l),
(58,476,ls),
(72,476,o),
(101,473,o),
(122,460,o),
(134,436,o),
(134,416,qs),
(134,83,ls),
(134,53,o),
(102,29,o),
(75,29,qs),
(34,28,l)
);
},
{
closed = 1;
nodes = (
(133,700,o),
(159,700,qs),
(185,700,o),
(221,738,o),
(221,763,qs),
(221,789,o),
(185,825,o),
(159,825,qs),
(133,825,o),
(96,789,o),
(96,763,qs),
(96,738,o)
);
}
);
width = 345;
}
);
note = i;
unicode = 105;
}
{
glyphname = w;
layers = (
{
layerId = m01;
shapes = (
{
closed = 1;
nodes = (
(275,-13,l),
(410,359,l),
(567,-13,l),
(590,-13,l),
(629,94,o),
(704,304,o),
(743,411,qs),
(756,444,o),
(797,486,o),
(831,494,q),
(831,520,l),
(641,520,l),
(641,494,l),
(652,493,o),
(676,487,o),
(697,478,o),
(709,461,o),
(709,447,qs),
(709,437,o),
(705,428,qs),
(597,124,l),
(477,422,ls),
(468,444,o),
(468,456,qs),
(468,481,o),
(511,495,o),
(538,495,q),
(538,520,l),
(296,520,l),
(296,495,l),
(314,495,o),
(343,485,o),
(364,467,o),
(381,440,o),
(389,422,q),
(282,124,l),
(156,440,l),
(153,450,o),
(153,456,qs),
(153,470,o),
(168,484,o),
(190,493,o),
(214,495,o),
(223,495,q),
(223,520,l),
(1,520,l),
(1,495,l),
(22,492,o),
(49,477,o),
(58,455,qs),
(247,-13,l)
);
}
);
width = 871;
}
);
note = w;
unicode = 119;
}
{
glyphname = y;
layers = (
{
layerId = m01;
shapes = (
{
closed = 1;
nodes = (
(57,-226,o),
(94,-226,qs),
(129,-226,o),
(182,-200,o),
(224,-160,o),
(255,-111,o),
(267,-89,q),
(485,411,ls),
(500,445,o),
(539,488,o),
(577,490,q),
(577,520,l),
(372,520,l),
(372,490,l),
(386,488,o),
(417,482,o),
(444,472,o),
(461,454,o),
(461,441,qs),
(461,433,o),
(459,428,qs),
(323,112,l),
(172,434,ls),
(168,444,o),
(168,454,qs),
(168,466,o),
(183,481,o),
(206,488,o),
(233,490,o),
(243,490,qs),
(247,490,l),
(247,520,l),
(5,520,l),
(5,495,l),
(27,493,o),
(63,469,o),
(73,447,qs),
(282,10,l),
(228,-97,ls),
(220,-113,o),
(200,-146,o),
(174,-172,o),
(142,-190,o),
(121,-190,qs),
(112,-190,o),
(94,-184,o),
(94,-172,qs),
(94,-170,o),
(96,-159,o),
(97,-154,qs),
(97,-150,o),
(99,-144,o),
(99,-143,qs),
(99,-140,ls),
(99,-121,o),
(69,-101,o),
(51,-101,qs),
(29,-101,o),
(4,-132,o),
(4,-153,qs),
(4,-191,o)
);
}
);
width = 598;
}
);
note = y;
unicode = 121;
}
{
glyphname = braceright;
layers = (
{
layerId = m01;
shapes = (
{
closed = 1;
nodes = (
(287,366,o),
(244,424,o),
(244,478,qs),
(244,494,o),
(243,522,o),
(242,539,qs),
(241,562,o),
(240,619,o),
(240,661,qs),
(240,692,o),
(209,748,o),
(157,792,o),
(93,820,o),
(61,821,q),
(61,815,l),
(85,806,o),
(127,785,o),
(158,756,o),
(176,714,o),
(176,685,qs),
(176,608,ls),
(177,588,o),
(177,549,o),
(177,528,qs),
(177,463,o),
(244,377,o),
(306,349,q),
(244,321,o),
(177,235,o),
(177,169,qs),
(177,148,o),
(177,109,o),
(176,90,qs),
(176,13,ls),
(176,-17,o),
(158,-58,o),
(127,-88,o),
(85,-109,o),
(61,-118,q),
(61,-124,l),
(93,-123,o),
(157,-95,o),
(209,-51,o),
(240,6,o),
(240,36,qs),
(240,78,o),
(241,135,o),
(242,158,qs),
(243,175,o),
(244,204,o),
(244,220,qs),
(244,275,o),
(287,334,o),
(335,342,q),
(335,357,l)
);
}
);
userData = {
assembly = "PUSHW[ ]	/* 4 values pushed */
9 5 24 4
CALL[ ]	/* CallFunction */
PUSHW[ ]	/* 1 value pushed */
9
SRP0[ ]	/* SetRefPoint0 */
PUSHW[ ]	/* 1 value pushed */
3
MDRP[10000]	/* MoveDirectRelPt */
PUSHW[ ]	/* 1 value pushed */
3
MDAP[1]	/* MoveDirectAbsPt */
PUSHW[ ]	/* 1 value pushed */
9
SRP0[ ]	/* SetRefPoint0 */
PUSHW[ ]	/* 1 value pushed */
6
MDRP[10000]	/* MoveDirectRelPt */
PUSHW[ ]	/* 1 value pushed */
6
MDAP[1]	/* MoveDirectAbsPt */
NPUSHW[ ]	/* 3 values pushed */
250 24 1
DELTAP1[ ]	/* DeltaExceptionP1 */
NPUSHW[ ]	/* 3 values pushed */
10 24 1
DELTAP2[ ]	/* DeltaExceptionP2 */
NPUSHW[ ]	/* 31 values pushed */
9 24 25 24 41 24 57 24 73 24 89 24 105 24 121 24 137 24 153 24 169 24 185 24 201 24 217 24 233 24 15
DELTAP1[ ]	/* DeltaExceptionP1 */
PUSHW[ ]	/* 1 value pushed */
24
SRP0[ ]	/* SetRefPoint0 */
PUSHW[ ]	/* 1 value pushed */
20
MDRP[10000]	/* MoveDirectRelPt */
PUSHW[ ]	/* 1 value pushed */
20
MDAP[1]	/* MoveDirectAbsPt */
PUSHW[ ]	/* 1 value pushed */
24
SRP0[ ]	/* SetRefPoint0 */
PUSHW[ ]	/* 1 value pushed */
30
MDRP[10000]	/* MoveDirectRelPt */
PUSHW[ ]	/* 1 value pushed */
24
SRP0[ ]	/* SetRefPoint0 */
PUSHW[ ]	/* 1 value pushed */
33
MDRP[10000]	/* MoveDirectRelPt */
PUSHW[ ]	/* 1 value pushed */
33
MDAP[1]	/* MoveDirectAbsPt */
PUSHW[ ]	/* 1 value pushed */
9
SRP0[ ]	/* SetRefPoint0 */
PUSHW[ ]	/* 1 value pushed */
45
MDRP[10000]	/* MoveDirectRelPt */
PUSHW[ ]	/* 1 value pushed */
9
SRP0[ ]	/* SetRefPoint0 */
PUSHW[ ]	/* 1 value pushed */
48
MDRP[10000]	/* MoveDirectRelPt */
PUSHW[ ]	/* 1 value pushed */
48
MDAP[1]	/* MoveDirectAbsPt */
PUSHW[ ]	/* 1 value pushed */
9
SRP0[ ]	/* SetRefPoint0 */
PUSHW[ ]	/* 1 value pushed */
51
MDRP[10000]	/* MoveDirectRelPt */
PUSHW[ ]	/* 1 value pushed */
51
MDAP[1]	/* MoveDirectAbsPt */
IUP[0]	/* InterpolateUntPts */
IUP[1]	/* InterpolateUntPts */";
};
width = 364;
}
);
note = braceright;
unicode = 125;
}
{
glyphname = copyright;
layers = (
{
layerId = m01;
shapes = (
{
closed = 1;
nodes = (
(53,161,o),
(167,48,o),
(319,-17,o),
(406,-17,qs),
(492,-17,o),
(643,48,o),
(757,161,o),
(823,313,o),
(823,400,qs),
(823,486,o),
(757,638,o),
(643,751,o),
(492,817,o),
(406,817,qs),
(319,817,o),
(167,751,o),
(53,638,o),
(-12,486,o),
(-12,400,qs),
(-12,313,o)
);
},
{
closed = 1;
nodes = (
(114,596,o),
(209,691,o),
(335,745,o),
(406,745,qs),
(477,745,o),
(604,691,o),
(698,596,o),
(752,470,o),
(752,399,qs),
(752,327,o),
(698,201,o),
(604,108,o),
(477,53,o),
(406,53,qs),
(334,53,o),
(209,108,o),
(114,201,o),
(60,327,o),
(60,399,qs),
(60,470,o)
);
},
{
closed = 1;
nodes = (
(208,248,o),
(267,180,o),
(351,140,o),
(403,140,qs),
(463,140,o),
(554,198,o),
(576,255,q),
(583,269,o),
(591,305,o),
(591,322,q),
(570,322,l),
(562,289,o),
(538,234,o),
(501,192,o),
(449,168,o),
(411,168,qs),
(366,168,o),
(308,210,o),
(274,274,o),
(260,352,o),
(260,390,qs),
(260,425,o),
(269,509,o),
(299,582,o),
(354,631,o),
(401,631,qs),
(437,631,o),
(487,601,o),
(522,553,o),
(546,494,o),
(555,465,q),
(555,463,o),
(556,462,qs),
(558,459,o),
(559,459,qs),
(580,459,l),
(572,658,l),
(549,658,l),
(523,614,l),
(495,635,o),
(432,660,o),
(396,660,qs),
(343,660,o),
(261,611,o),
(204,533,o),
(175,436,o),
(175,389,qs),
(175,339,o)
);
}
);
userData = {
assembly = "PUSHW[ ]	/* 4 values pushed */
20 5 0 4
CALL[ ]	/* CallFunction */
PUSHW[ ]	/* 3 values pushed */
50 56 3
CALL[ ]	/* CallFunction */
NPUSHW[ ]	/* 31 values pushed */
6 20 22 20 38 20 54 20 70 20 86 20 102 20 118 20 134 20 150 20 166 20 182 20 198 20 214 20 230 20 15
DELTAP1[ ]	/* DeltaExceptionP1 */
NPUSHW[ ]	/* 3 values pushed */
245 20 1
DELTAP1[ ]	/* DeltaExceptionP1 */
NPUSHW[ ]	/* 3 values pushed */
5 20 1
DELTAP2[ ]	/* DeltaExceptionP2 */
PUSHW[ ]	/* 1 value pushed */
50
SRP0[ ]	/* SetRefPoint0 */
PUSHW[ ]	/* 1 value pushed */
77
MDRP[11100]	/* MoveDirectRelPt */
SVTCA[0]	/* SetFreedomAndProjectionVectorToAxis */
PUSHW[ ]	/* 1 value pushed */
0
RCVT[ ]	/* ReadCVT */
IF[ ]	/* If */
PUSHW[ ]	/* 1 value pushed */
15
MDAP[1]	/* MoveDirectAbsPt */
ELSE[ ]	/* Else */
PUSHW[ ]	/* 2 values pushed */
15 6
MIAP[0]	/* MoveIndirectAbsPt */
EIF[ ]	/* EndIf */
PUSHW[ ]	/* 4 values pushed */
71 2 83 4
CALL[ ]	/* CallFunction */
PUSHW[ ]	/* 4 values pushed */
49 2 61 4
CALL[ ]	/* CallFunction */
PUSHW[ ]	/* 1 value pushed */
15
SRP0[ ]	/* SetRefPoint0 */
PUSHW[ ]	/* 2 values pushed */
25 3
MIRP[10100]	/* MoveIndirectRelPt */
NPUSHW[ ]	/* 31 values pushed */
7 25 23 25 39 25 55 25 71 25 87 25 103 25 119 25 135 25 151 25 167 25 183 25 199 25 215 25 231 25 15
DELTAP1[ ]	/* DeltaExceptionP1 */
NPUSHW[ ]	/* 3 values pushed */
246 25 1
DELTAP1[ ]	/* DeltaExceptionP1 */
NPUSHW[ ]	/* 3 values pushed */
6 25 1
DELTAP2[ ]	/* DeltaExceptionP2 */
PUSHW[ ]	/* 1 value pushed */
49
SRP0[ ]	/* SetRefPoint0 */
PUSHW[ ]	/* 1 value pushed */
45
MDRP[10000]	/* MoveDirectRelPt */
PUSHW[ ]	/* 1 value pushed */
45
MDAP[1]	/* MoveDirectAbsPt */
IUP[0]	/* InterpolateUntPts */
IUP[1]	/* InterpolateUntPts */";
};
width = 925;
}
);
note = copyright;
unicode = 169;
}
{
glyphname = macron;
layers = (
{
layerId = m01;
shapes = (
{
closed = 1;
nodes = (
(358,631,l),
(358,692,l),
(12,692,l),
(12,631,l)
);
}
);
userData = {
assembly = "SVTCA[0]	/* SetFreedomAndProjectionVectorToAxis */
PUSHW[ ]	/* 4 values pushed */
1 1 2 4
CALL[ ]	/* CallFunction */
IUP[0]	/* InterpolateUntPts */
IUP[1]	/* InterpolateUntPts */";
};
width = 369;
}
);
note = macron;
unicode = 175;
}
{
glyphname = plusminus;
layers = (
{
layerId = m01;
shapes = (
{
closed = 1;
nodes = (
(56,0,l),
(618,0,l),
(618,43,l),
(357,43,l),
(357,259,l),
(618,259,l),
(618,304,l),
(357,304,l),
(357,563,l),
(312,563,l),
(312,304,l),
(56,304,l),
(56,259,l),
(312,259,l),
(312,43,l),
(56,43,l)
);
}
);
userData = {
assembly = "PUSHW[ ]	/* 4 values pushed */
11 4 0 4
CALL[ ]	/* CallFunction */
PUSHW[ ]	/* 1 value pushed */
0
SRP0[ ]	/* SetRefPoint0 */
PUSHW[ ]	/* 1 value pushed */
4
MDRP[10000]	/* MoveDirectRelPt */
PUSHW[ ]	/* 1 value pushed */
11
SRP0[ ]	/* SetRefPoint0 */
PUSHW[ ]	/* 1 value pushed */
6
MDRP[10000]	/* MoveDirectRelPt */
SVTCA[0]	/* SetFreedomAndProjectionVectorToAxis */
PUSHW[ ]	/* 1 value pushed */
0
RCVT[ ]	/* ReadCVT */
IF[ ]	/* If */
PUSHW[ ]	/* 1 value pushed */
13
MDAP[1]	/* MoveDirectAbsPt */
ELSE[ ]	/* Else */
PUSHW[ ]	/* 2 values pushed */
13 6
MIAP[0]	/* MoveIndirectAbsPt */
EIF[ ]	/* EndIf */
PUSHW[ ]	/* 4 values pushed */
4 1 1 4
CALL[ ]	/* CallFunction */
PUSHW[ ]	/* 1 value pushed */
13
SRP0[ ]	/* SetRefPoint0 */
PUSHW[ ]	/* 2 values pushed */
0 1
MIRP[10100]	/* MoveIndirectRelPt */
PUSHW[ ]	/* 1 value pushed */
4
SRP0[ ]	/* SetRefPoint0 */
PUSHW[ ]	/* 1 value pushed */
7
MDRP[10000]	/* MoveDirectRelPt */
PUSHW[ ]	/* 1 value pushed */
1
SRP0[ ]	/* SetRefPoint0 */
PUSHW[ ]	/* 1 value pushed */
9
MDRP[10000]	/* MoveDirectRelPt */
PUSHW[ ]	/* 1 value pushed */
0
SRP0[ ]	/* SetRefPoint0 */
PUSHW[ ]	/* 1 value pushed */
11
MDRP[10000]	/* MoveDirectRelPt */
PUSHW[ ]	/* 1 value pushed */
12
MDRP[10000]	/* MoveDirectRelPt */
IUP[0]	/* InterpolateUntPts */
IUP[1]	/* InterpolateUntPts */";
};
width = 672;
}
);
note = plusminus;
unicode = 177;
}
{
glyphname = divide;
layers = (
{
layerId = m01;
shapes = (
{
closed = 1;
nodes = (
(302,458,o),
(329,458,qs),
(355,458,o),
(391,495,o),
(391,522,qs),
(391,548,o),
(355,585,o),
(329,585,qs),
(302,585,o),
(265,548,o),
(265,522,qs),
(265,495,o)
);
},
{
closed = 1;
nodes = (
(302,-17,o),
(329,-17,qs),
(355,-17,o),
(391,20,o),
(391,46,qs),
(391,73,o),
(355,109,o),
(329,109,qs),
(302,109,o),
(265,73,o),
(265,46,qs),
(265,20,o)
);
},
{
closed = 1;
nodes = (
(57,247,l),
(614,247,l),
(614,313,l),
(57,313,l)
);
}
);
width = 671;
}
);
note = divide;
unicode = 247;
}
{
glyphname = breve;
layers = (
{
layerId = m01;
shapes = (
{
closed = 1;
nodes = (
(255,597,o),
(333,675,o),
(333,759,q),
(302,759,l),
(300,737,o),
(284,700,o),
(255,672,o),
(210,656,o),
(180,656,qs),
(150,656,o),
(106,672,o),
(78,700,o),
(62,737,o),
(59,759,q),
(28,759,l),
(28,675,o),
(106,597,o),
(180,597,qs),
(181,597,ls)
);
}
);
userData = {
assembly = "PUSHW[ ]	/* 1 value pushed */
19
MDAP[1]	/* MoveDirectAbsPt */
PUSHW[ ]	/* 1 value pushed */
14
MDAP[1]	/* MoveDirectAbsPt */
PUSHW[ ]	/* 1 value pushed */
19
SRP0[ ]	/* SetRefPoint0 */
PUSHW[ ]	/* 1 value pushed */
3
MDRP[10000]	/* MoveDirectRelPt */
PUSHW[ ]	/* 1 value pushed */
3
MDAP[1]	/* MoveDirectAbsPt */
PUSHW[ ]	/* 2 values pushed */
4 4
MIRP[10100]	/* MoveIndirectRelPt */
PUSHW[ ]	/* 1 value pushed */
14
SRP0[ ]	/* SetRefPoint0 */
PUSHW[ ]	/* 2 values pushed */
15 4
MIRP[10100]	/* MoveIndirectRelPt */
PUSHW[ ]	/* 1 value pushed */
20
MDRP[11100]	/* MoveDirectRelPt */
SVTCA[0]	/* SetFreedomAndProjectionVectorToAxis */
PUSHW[ ]	/* 4 values pushed */
9 1 0 4
CALL[ ]	/* CallFunction */
IUP[0]	/* InterpolateUntPts */
IUP[1]	/* InterpolateUntPts */";
};
width = 369;
}
);
note = breve;
unicode = 728;
}
{
glyphname = ring;
layers = (
{
layerId = m01;
shapes = (
{
closed = 1;
nodes = (
(91,628,o),
(122,597,o),
(161,580,o),
(184,580,qs),
(208,580,o),
(247,597,o),
(278,628,o),
(296,668,o),
(296,691,qs),
(296,714,o),
(278,755,o),
(247,784,o),
(207,802,o),
(184,802,qs),
(161,802,o),
(122,784,o),
(91,755,o),
(73,714,o),
(73,691,qs),
(73,668,o)
);
},
{
closed = 1;
nodes = (
(154,761,o),
(183,761,qs),
(213,761,o),
(255,719,o),
(255,690,qs),
(255,660,o),
(212,619,o),
(183,619,qs),
(154,619,o),
(113,661,o),
(113,690,qs),
(113,719,o)
);
}
);
userData = {
assembly = "PUSHW[ ]	/* 1 value pushed */
32
MDAP[1]	/* MoveDirectAbsPt */
PUSHW[ ]	/* 1 value pushed */
26
MDAP[1]	/* MoveDirectAbsPt */
PUSHW[ ]	/* 1 value pushed */
32
SRP0[ ]	/* SetRefPoint0 */
PUSHW[ ]	/* 1 value pushed */
0
MDRP[10000]	/* MoveDirectRelPt */
PUSHW[ ]	/* 1 value pushed */
0
MDAP[1]	/* MoveDirectAbsPt */
NPUSHW[ ]	/* 3 values pushed */
250 26 1
DELTAP1[ ]	/* DeltaExceptionP1 */
NPUSHW[ ]	/* 3 values pushed */
10 26 1
DELTAP2[ ]	/* DeltaExceptionP2 */
NPUSHW[ ]	/* 31 values pushed */
9 26 25 26 41 26 57 26 73 26 89 26 105 26 121 26 137 26 153 26 169 26 185 26 201 26 217 26 233 26 15
DELTAP1[ ]	/* DeltaExceptionP1 */
PUSHW[ ]	/* 1 value pushed */
26
SRP0[ ]	/* SetRefPoint0 */
PUSHW[ ]	/* 2 values pushed */
10 4
MIRP[10100]	/* MoveIndirectRelPt */
PUSHW[ ]	/* 1 value pushed */
0
SRP0[ ]	/* SetRefPoint0 */
PUSHW[ ]	/* 2 values pushed */
20 4
MIRP[10100]	/* MoveIndirectRelPt */
NPUSHW[ ]	/* 31 values pushed */
6 20 22 20 38 20 54 20 70 20 86 20 102 20 118 20 134 20 150 20 166 20 182 20 198 20 214 20 230 20 15
DELTAP1[ ]	/* DeltaExceptionP1 */
NPUSHW[ ]	/* 3 values pushed */
245 20 1
DELTAP1[ ]	/* DeltaExceptionP1 */
NPUSHW[ ]	/* 3 values pushed */
5 20 1
DELTAP2[ ]	/* DeltaExceptionP2 */
PUSHW[ ]	/* 1 value pushed */
10
SRP0[ ]	/* SetRefPoint0 */
PUSHW[ ]	/* 1 value pushed */
33
MDRP[11100]	/* MoveDirectRelPt */
SVTCA[0]	/* SetFreedomAndProjectionVectorToAxis */
PUSHW[ ]	/* 4 values pushed */
23 2 15 4
CALL[ ]	/* CallFunction */
PUSHW[ ]	/* 4 values pushed */
5 1 29 4
CALL[ ]	/* CallFunction */
IUP[0]	/* InterpolateUntPts */
IUP[1]	/* InterpolateUntPts */";
};
width = 369;
}
);
note = ring;
unicode = 730;
}
{
glyphname = ogonek;
layers = (
{
layerId = m01;
shapes = (
{
closed = 1;
nodes = (
(191,5,o),
(159,-24,o),
(122,-69,o),
(90,-126,o),
(90,-153,qs),
(90,-180,o),
(125,-214,o),
(173,-233,o),
(224,-239,o),
(242,-239,qs),
(260,-239,o),
(299,-225,o),
(333,-201,o),
(362,-172,o),
(368,-156,q),
(333,-132,l),
(314,-156,o),
(273,-176,o),
(256,-179,qs),
(247,-180,o),
(223,-177,o),
(201,-167,o),
(185,-148,o),
(185,-132,qs),
(185,-116,o),
(195,-79,o),
(213,-40,o),
(240,-7,o),
(258,5,q),
(191,5,l)
);
}
);
userData = {
assembly = "SVTCA[0]	/* SetFreedomAndProjectionVectorToAxis */
PUSHW[ ]	/* 4 values pushed */
10 1 19 4
CALL[ ]	/* CallFunction */
IUP[0]	/* InterpolateUntPts */
IUP[1]	/* InterpolateUntPts */";
};
width = 369;
}
);
note = ogonek;
unicode = 731;
}
{
glyphname = tilde;
layers = (
{
layerId = m01;
shapes = (
{
closed = 1;
nodes = (
(26,614,l),
(34,642,o),
(73,671,o),
(100,671,qs),
(114,671,o),
(148,653,o),
(184,632,o),
(221,614,o),
(240,614,qs),
(269,614,o),
(312,633,o),
(342,665,o),
(360,707,o),
(363,729,q),
(337,729,l),
(326,704,o),
(290,673,o),
(260,673,qs),
(248,673,o),
(215,691,o),
(176,712,o),
(135,729,o),
(116,729,qs),
(96,729,o),
(59,713,o),
(27,682,o),
(5,640,o),
(1,614,q),
(1,614,l)
);
}
);
userData = {
assembly = "SVTCA[0]	/* SetFreedomAndProjectionVectorToAxis */
PUSHW[ ]	/* 4 values pushed */
24 1 27 4
CALL[ ]	/* CallFunction */
PUSHW[ ]	/* 1 value pushed */
27
SRP0[ ]	/* SetRefPoint0 */
PUSHW[ ]	/* 1 value pushed */
0
MDRP[10000]	/* MoveDirectRelPt */
PUSHW[ ]	/* 1 value pushed */
24
SRP0[ ]	/* SetRefPoint0 */
PUSHW[ ]	/* 2 values pushed */
5 1
MIRP[10100]	/* MoveIndirectRelPt */
PUSHW[ ]	/* 1 value pushed */
24
SRP0[ ]	/* SetRefPoint0 */
PUSHW[ ]	/* 1 value pushed */
10
MDRP[10000]	/* MoveDirectRelPt */
PUSHW[ ]	/* 1 value pushed */
10
MDAP[1]	/* MoveDirectAbsPt */
PUSHW[ ]	/* 1 value pushed */
5
SRP0[ ]	/* SetRefPoint0 */
PUSHW[ ]	/* 1 value pushed */
13
MDRP[10000]	/* MoveDirectRelPt */
PUSHW[ ]	/* 1 value pushed */
27
SRP0[ ]	/* SetRefPoint0 */
PUSHW[ ]	/* 1 value pushed */
19
MDRP[10000]	/* MoveDirectRelPt */
IUP[0]	/* InterpolateUntPts */
IUP[1]	/* InterpolateUntPts */";
};
width = 369;
}
);
note = tilde;
unicode = 732;
}
{
glyphname = or_ta;
layers = (
{
backgroundImage = {
imagePath = "../../../../ta.png";
pos = (-2,0);
scale = (1.8462,1.8462);
};
layerId = m01;
shapes = (
{
closed = 1;
nodes = (
(669,236,o),
(669,293,o),
(671,340,cs),
(671,526,o),
(517,672,o),
(327,672,cs),
(172,672,o),
(50,564,o),
(50,427,cs),
(50,377,o),
(85,321,o),
(130,299,cs),
(140,295,o),
(188,290,o),
(239,288,c),
(274,331,l),
(246,331,ls),
(214,331,o),
(182,336,o),
(164,343,cs),
(137,353,o),
(120,385,o),
(120,427,cs),
(120,535,o),
(200,602,o),
(327,602,cs),
(481,602,o),
(603,502,o),
(603,341,cs),
(603,236,o),
(586,132,o),
(562,28,c),
(611,17,l)
);
},
{
closed = 1;
nodes = (
(467,56,o),
(522,94,o),
(522,153,cs),
(522,214,o),
(467,251,o),
(417,251,cs),
(368,251,o),
(312,214,o),
(312,153,cs),
(312,94,o),
(368,56,o),
(417,56,cs)
);
},
{
closed = 1;
nodes = (
(396,101,o),
(376,124,o),
(376,155,cs),
(376,186,o),
(396,206,o),
(417,206,cs),
(438,206,o),
(458,186,o),
(458,155,cs),
(458,124,o),
(438,101,o),
(417,101,cs)
);
},
{
closed = 1;
nodes = (
(222,300,o),
(234,315,o),
(166,287,cs),
(124,268,o),
(98,231,o),
(98,191,cs),
(98,74,o),
(182,0,o),
(315,0,cs),
(377,0,o),
(436,13,o),
(477,53,cs),
(500,75,o),
(515,107,o),
(520,135,c),
(468,136,l),
(423,65,l),
(404,56,o),
(362,52,o),
(315,54,cs),
(223,58,o),
(166,111,o),
(166,191,cs),
(166,218,o),
(176,241,o),
(192,250,cs),
(241,275,o),
(276,293,o),
(284,296,c),
(274,331,l)
);
}
);
width = 721;
}
);
note = or_ta;
unicode = 2852;
}
{
glyphname = or_rrukaar;
layers = (
{
layerId = m01;
shapes = (
{
closed = 1;
nodes = (
(383,15,l),
(341,31,o),
(327,59,o),
(331,83,cs),
(334,101,o),
(359,127,o),
(385,136,cs),
(412,145,l),
(389,198,l),
(361,188,ls),
(307,169,o),
(268,124,o),
(263,93,cs),
(255,54,o),
(271,15,o),
(308,-10,c),
(253,-46,o),
(218,-97,o),
(212,-132,cs),
(195,-222,o),
(256,-312,o),
(387,-333,cs),
(485,-348,o),
(611,-299,o),
(640,-214,cs),
(675,-113,o),
(600,-44,o),
(529,-44,cs),
(437,-44,o),
(366,-160,o),
(366,-256,cs),
(366,-291,l),
(436,-291,l),
(436,-256,ls),
(436,-181,o),
(491,-100,o),
(529,-100,cs),
(558,-100,o),
(593,-141,o),
(574,-196,cs),
(553,-257,o),
(469,-288,o),
(397,-277,cs),
(309,-263,o),
(269,-200,o),
(280,-142,cs),
(286,-109,o),
(327,-61,o),
(383,-29,c)
);
}
);
width = 656;
}
);
note = or_rrukaar;
unicode = 2884;
}
{
glyphname = or_aikaar;
layers = (
{
background = {
shapes = (
{
closed = 1;
nodes = (
(635,911,o),
(678,883,o),
(734,873,o),
(764,873,qs),
(820,873,o),
(931,898,o),
(1040,929,o),
(1149,954,o),
(1205,954,qs),
(1245,954,o),
(1289,933,o),
(1311,894,o),
(1315,840,o),
(1315,808,qs),
(1315,785,o),
(1314,742,o),
(1313,720,q),
(1373,720,l),
(1375,742,o),
(1379,787,o),
(1379,809,qs),
(1379,854,o),
(1362,930,o),
(1322,983,o),
(1256,1012,o),
(1207,1012,qs),
(1150,1012,o),
(1037,987,o),
(927,956,o),
(816,931,o),
(759,931,qs),
(743,931,o),
(712,936,o),
(686,948,o),
(671,973,o),
(611,991,q),
(611,957,o)
);
}
);
};
layerId = m01;
shapes = (
{
closed = 1;
nodes = (
(1221,299,qs),
(1265,299,o),
(1265,342,qs),
(1265,384,o),
(1221,384,qs),
(1178,384,o),
(1178,342,qs),
(1178,299,o)
);
},
{
closed = 1;
nodes = (
(1155,482,qs),
(1198,482,o),
(1198,525,qs),
(1198,568,o),
(1155,568,qs),
(1112,568,o),
(1112,525,qs),
(1112,482,o)
);
},
{
closed = 1;
nodes = (
(1007,577,o),
(1007,599,qs),
(1007,620,o),
(983,641,o),
(962,641,qs),
(920,641,o),
(920,599,qs),
(920,556,o),
(962,556,qs),
(983,556,o)
);
},
{
closed = 1;
nodes = (
(813,525,qs),
(813,568,o),
(770,568,q),
(729,568,o),
(729,525,qs),
(729,505,o),
(749,482,o),
(770,482,qs),
(813,482,o)
);
},
{
closed = 1;
nodes = (
(1155,113,qs),
(1198,113,o),
(1198,156,qs),
(1198,199,o),
(1155,199,qs),
(1112,199,o),
(1112,156,qs),
(1112,113,o)
);
},
{
closed = 1;
nodes = (
(1007,82,qs),
(1007,104,o),
(983,125,o),
(962,125,qs),
(920,125,o),
(920,82,qs),
(920,62,o),
(941,39,o),
(962,39,qs),
(1007,39,o)
);
},
{
closed = 1;
nodes = (
(770,113,qs),
(813,113,o),
(813,156,qs),
(813,199,o),
(770,199,qs),
(729,199,o),
(729,156,qs),
(729,113,o)
);
},
{
closed = 1;
nodes = (
(705,299,qs),
(747,299,o),
(747,342,qs),
(747,383,o),
(705,383,qs),
(662,383,o),
(662,342,qs),
(662,299,o)
);
},
{
closed = 1;
nodes = (
(472,604,o),
(424,672,o),
(283,672,cs),
(214,672,o),
(166,630,o),
(134,588,cs),
(69,502,o),
(58,395,o),
(81,274,cs),
(102,162,o),
(176,0,o),
(338,0,cs),
(455,0,o),
(500,115,o),
(445,183,cs),
(381,262,o),
(292,277,o),
(169,265,cs),
(141,262,l),
(147,206,l),
(175,209,ls),
(284,219,o),
(339,212,o),
(391,147,cs),
(405,130,o),
(403,56,o),
(338,56,cs),
(230,56,o),
(168,182,o),
(149,284,cs),
(128,395,o),
(143,492,o),
(190,554,cs),
(221,595,o),
(249,615,o),
(285,616,cs),
(358,618,o),
(393,586,o),
(425,535,cs),
(472,459,l),
(520,476,l),
(508,508,ls)
);
},
{
closed = 1;
nodes = (
(602,879,o),
(702,848,o),
(808,875,cs),
(926,905,o),
(951,916,o),
(1060,946,cs),
(1133,966,o),
(1178,967,o),
(1212,943,cs),
(1284,893,o),
(1270,797,o),
(1264,725,cs),
(1261,690,l),
(1331,686,l),
(1334,721,ls),
(1340,793,o),
(1364,911,o),
(1252,989,cs),
(1200,1025,o),
(1123,1022,o),
(1042,1000,cs),
(925,968,o),
(900,957,o),
(790,929,cs),
(708,908,o),
(654,920,o),
(634,961,cs),
(620,990,l),
(572,973,l),
(587,926,ls)
);
}
);
width = 1392;
}
);
note = or_aikaar;
unicode = 2888;
}
{
glyphname = or_halant;
layers = (
{
backgroundImage = {
imagePath = "../../../../halant-virama.png";
};
layerId = m01;
shapes = (
{
closed = 1;
nodes = (
(128,-305,o),
(108,-283,o),
(74,-283,cs),
(-334,-283,l),
(-325,-283,o),
(-311,-300,o),
(-311,-299,c),
(-270,-201,l),
(-325,-177,l),
(-341,-207,ls),
(-354,-231,o),
(-381,-273,o),
(-381,-299,cs),
(-381,-323,o),
(-359,-339,o),
(-334,-339,cs),
(74,-339,l),
(137,-388,l),
(174,-351,l),
(148,-325,ls)
);
}
);
width = 0;
}
);
note = or_halant;
unicode = 2893;
}
{
glyphname = emdash;
layers = (
{
layerId = m01;
shapes = (
{
closed = 1;
nodes = (
(0,225,l),
(1120,225,l),
(1120,291,l),
(0,291,l)
);
}
);
width = 1118;
}
);
note = emdash;
unicode = 8212;
}
{
glyphname = quotedblright;
layers = (
{
layerId = m01;
shapes = (
{
closed = 1;
nodes = (
(398,768,o),
(376,800,o),
(344,818,o),
(322,818,qs),
(291,818,o),
(258,781,o),
(258,751,qs),
(258,730,o),
(274,704,o),
(299,691,o),
(331,686,o),
(349,686,qs),
(357,686,o),
(344,645,o),
(312,589,o),
(270,536,o),
(250,524,q),
(265,504,l),
(284,512,o),
(298,522,o),
(306,528,qs),
(348,563,o),
(409,653,o),
(409,711,qs),
(409,730,o)
);
},
{
closed = 1;
nodes = (
(176,768,o),
(154,800,o),
(122,818,o),
(100,818,qs),
(69,818,o),
(36,781,o),
(36,751,qs),
(36,730,o),
(51,704,o),
(77,691,o),
(109,686,o),
(127,686,qs),
(135,686,o),
(122,645,o),
(90,589,o),
(48,536,o),
(28,524,q),
(43,504,l),
(62,512,o),
(76,522,o),
(84,528,qs),
(126,563,o),
(187,653,o),
(187,711,qs),
(187,730,o)
);
}
);
userData = {
assembly = "SVTCA[0]	/* SetFreedomAndProjectionVectorToAxis */
PUSHW[ ]	/* 1 value pushed */
3
MDAP[1]	/* MoveDirectAbsPt */
PUSHW[ ]	/* 1 value pushed */
7
MDAP[1]	/* MoveDirectAbsPt */
PUSHW[ ]	/* 1 value pushed */
28
MDAP[1]	/* MoveDirectAbsPt */
PUSHW[ ]	/* 1 value pushed */
32
MDAP[1]	/* MoveDirectAbsPt */
IUP[0]	/* InterpolateUntPts */
IUP[1]	/* InterpolateUntPts */";
};
width = 431;
}
);
note = quotedblright;
unicode = 8221;
}
{
export = 0;
glyphname = _or.GaiChanda;
layers = (
{
layerId = m01;
shapes = (
{
closed = 1;
nodes = (
(449,-119,o),
(420,-90,o),
(420,-53,cs),
(420,-18,o),
(446,10,o),
(485,10,cs),
(525,10,o),
(557,-18,o),
(557,-53,cs),
(557,-90,o),
(528,-119,o),
(488,-119,cs)
);
},
{
closed = 1;
nodes = (
(266,-119,o),
(234,-90,o),
(234,-53,cs),
(234,-51,l),
(236,-39,ls),
(243,-11,o),
(272,10,o),
(306,10,cs),
(345,10,o),
(371,-18,o),
(371,-53,cs),
(371,-90,o),
(345,-119,o),
(306,-119,cs)
);
},
{
closed = 1;
nodes = (
(148,10,o),
(92,32,o),
(43,46,c),
(25,10,l),
(185,-86,l),
(197,-137,o),
(246,-167,o),
(305,-167,cs),
(341,-167,o),
(373,-153,o),
(396,-130,c),
(419,-152,o),
(451,-165,o),
(487,-167,cs),
(557,-170,o),
(608,-118,o),
(608,-54,cs),
(608,16,o),
(555,65,o),
(485,65,cs),
(450,65,o),
(417,50,o),
(394,28,c),
(371,49,o),
(340,63,o),
(303,65,cs),
(247,67,o),
(204,30,o),
(189,-17,c)
);
}
);
width = 661;
}
);
}
{
export = 0;
glyphname = _or.kha;
layers = (
{
layerId = m01;
shapes = (
{
closed = 0;
nodes = (
(410,628,l),
(365,602,o),
(311,526,o),
(311,510,c),
(311,494,o),
(356,439,o),
(421,439,cs),
(543,439,o),
(585,496,o),
(613,534,c)
);
}
);
width = 703;
}
);
}
{
export = 0;
glyphname = _or_halant_virama;
layers = (
{
layerId = m01;
shapes = (
{
closed = 0;
nodes = (
(-310,-220,l),
(-322,-242,o),
(-346,-280,o),
(-346,-299,cs),
(-346,-306,o),
(-342,-311,o),
(-334,-311,cs),
(74,-311,ls),
(93,-311,o),
(110,-332,o),
(123,-345,c)
);
}
);
width = 0;
}
);
}
{
export = 0;
glyphname = _or_i_kaar_loop;
layers = (
{
layerId = m01;
shapes = (
{
closed = 0;
nodes = (
(295,638,l),
(217,618,o),
(166,575,o),
(166,508,c),
(178,431,o),
(279,391,o),
(345,391,cs),
(414,391,o),
(439,430,o),
(439,468,cs),
(439,508,o),
(387,545,o),
(351,552,cs),
(258,571,o),
(104,484,o),
(104,419,cs),
(104,399,o),
(107,379,o),
(115,359,c)
);
}
);
width = 780;
}
);
}
{
export = 0;
glyphname = _or_tha;
layers = (
{
layerId = m01;
shapes = (
{
closed = 0;
nodes = (
(143,457,l),
(128,560,o),
(175,632,o),
(270,641,cs),
(381,647,o),
(463,605,o),
(463,516,cs),
(463,331,o),
(159,390,o),
(159,200,cs),
(159,88,o),
(255,27,o),
(372,27,cs),
(502,27,o),
(567,108,o),
(633,197,c)
);
}
);
width = 737;
}
);
}
{
export = 0;
glyphname = _or_wa;
layers = (
{
layerId = m01;
shapes = (
{
closed = 0;
nodes = (
(299,469,l),
(308,539,o),
(368,593,o),
(440,593,cs),
(519,593,o),
(583,529,o),
(583,450,cs),
(583,403,o),
(554,351,o),
(523,335,cs),
(392,269,l)
);
},
{
closed = 0;
nodes = (
(524,331,l),
(577,319,o),
(634,293,o),
(634,207,cs),
(634,81,o),
(503,24,o),
(376,27,cs),
(237,31,o),
(169,103,o),
(121,156,cs),
(82,200,o),
(50,275,o),
(50,373,cs),
(50,483,o),
(93,587,o),
(220,666,cs),
(278,702,o),
(347,723,o),
(426,723,cs),
(496,723,o),
(607,690,o),
(660,632,cs),
(727,559,o),
(744,510,o),
(744,377,cs),
(744,330,o),
(744,277,o),
(768,231,cs),
(804,162,o),
(902,144,o),
(944,199,c)
);
}
);
width = 994;
}
);
}
{
glyphname = or_c_cha;
layers = (
{
layerId = m01;
shapes = (
{
closed = 1;
nodes = (
(290,285,qs),
(340,286,ls),
(355,286,o),
(363,284,qs),
(387,277,o),
(399,249,qs),
(406,233,o),
(406,212,qs),
(406,161,o),
(372,121,qs),
(352,98,o),
(332,94,qs),
(327,93,o),
(322,92,qs),
(319,92,o),
(312,95,qs),
(300,100,o),
(289,111,qs),
(260,142,o),
(260,192,qs),
(260,241,o),
(289,285,q),
(289,285,o)
);
},
{
closed = 1;
nodes = (
(199,94,q),
(174,91,o),
(139,85,qs),
(90,77,o),
(70,77,q),
(70,77,o),
(54,77,o),
(39,80,qs),
(23,83,l),
(12,25,l),
(40,19,o),
(102,19,o),
(154,28,qs),
(206,37,o),
(226,37,q),
(206,8,o),
(206,-27,qs),
(206,-49,o),
(214,-69,qs),
(226,-102,o),
(255,-125,qs),
(298,-159,o),
(358,-159,qs),
(392,-159,o),
(422,-147,qs),
(444,-138,o),
(460,-125,q),
(478,-140,o),
(503,-148,qs),
(528,-157,o),
(556,-157,qs),
(571,-157,o),
(586,-155,qs),
(633,-146,o),
(664,-115,qs),
(691,-88,o),
(698,-52,qs),
(700,-42,o),
(700,-31,qs),
(700,-6,o),
(689,17,qs),
(677,43,o),
(655,61,q),
(668,70,o),
(679,82,qs),
(713,118,o),
(721,170,qs),
(722,183,o),
(722,195,qs),
(722,232,o),
(707,265,qs),
(683,316,o),
(630,339,qs),
(598,353,o),
(526,353,o),
(496,341,qs),
(470,330,o),
(451,312,q),
(409,344,o),
(340,344,qs),
(290,342,ls),
(279,342,o),
(272,343,qs),
(253,346,o),
(239,359,qs),
(209,386,o),
(209,436,qs),
(209,456,o),
(217,479,qs),
(229,514,o),
(258,544,qs),
(327,617,o),
(441,631,qs),
(459,633,o),
(478,633,qs),
(563,633,o),
(632,590,qs),
(688,556,o),
(764,444,o),
(782,372,qs),
(797,314,o),
(797,253,qs),
(797,207,o),
(788,162,q),
(878,144,l),
(880,155,ls),
(889,203,o),
(889,253,qs),
(889,318,o),
(873,381,qs),
(854,460,o),
(812,521,qs),
(766,589,o),
(697,632,qs),
(600,690,o),
(478,690,qs),
(451,690,o),
(424,687,qs),
(269,669,o),
(178,573,qs),
(142,535,o),
(127,491,qs),
(116,462,o),
(116,413,o),
(121,394,qs),
(132,353,o),
(163,326,qs),
(179,312,o),
(200,302,q),
(167,250,o),
(167,192,qs),
(167,134,o)
);
},
{
closed = 1;
nodes = (
(514,264,qs),
(528,285,o),
(546,293,qs),
(553,296,o),
(569,296,o),
(577,292,qs),
(604,280,o),
(619,248,qs),
(630,224,o),
(630,195,qs),
(630,185,o),
(629,176,qs),
(623,136,o),
(599,111,qs),
(590,101,o),
(582,97,qs),
(578,95,o),
(574,94,q),
(568,94,o),
(562,94,q),
(558,96,o),
(554,98,qs),
(543,104,o),
(531,118,qs),
(499,157,o),
(499,207,qs),
(499,240,o)
);
},
{
closed = 1;
nodes = (
(318,24,q),
(326,30,o),
(336,34,qs),
(343,36,o),
(351,36,qs),
(364,35,o),
(375,30,q),
(386,23,o),
(395,14,qs),
(404,3,o),
(409,-11,qs),
(411,-17,o),
(412,-23,qs),
(413,-30,o),
(413,-37,qs),
(412,-44,o),
(411,-52,q),
(408,-59,o),
(405,-67,q),
(399,-77,o),
(391,-86,qs),
(383,-93,o),
(372,-98,qs),
(369,-100,o),
(365,-101,qs),
(362,-101,o),
(358,-101,qs),
(350,-101,o),
(343,-98,qs),
(335,-94,o),
(328,-89,qs),
(320,-82,o),
(314,-74,qs),
(308,-65,o),
(304,-56,qs),
(301,-49,o),
(300,-43,qs),
(299,-37,o),
(299,-31,qs),
(300,-11,o),
(306,7,q),
(311,16,o)
);
},
{
closed = 1;
nodes = (
(538,31,qs),
(544,34,o),
(550,36,q),
(558,37,o),
(567,35,qs),
(570,34,o),
(574,31,qs),
(590,19,o),
(600,1,qs),
(604,-6,o),
(606,-15,qs),
(607,-23,o),
(607,-31,qs),
(607,-35,o),
(607,-42,o),
(606,-45,qs),
(604,-56,o),
(599,-67,qs),
(594,-76,o),
(586,-84,qs),
(579,-91,o),
(571,-96,q),
(563,-99,o),
(555,-99,qs),
(553,-99,o),
(552,-99,qs),
(549,-99,o),
(547,-98,qs),
(541,-95,o),
(535,-92,q),
(530,-88,o),
(525,-82,qs),
(516,-71,o),
(510,-59,q),
(506,-45,o),
(505,-31,q),
(506,-16,o),
(511,-2,qs),
(517,11,o),
(527,22,qs),
(532,27,o)
);
},
{
closed = 1;
nodes = (
(481,86,qs),
(496,74,o),
(512,65,q),
(493,56,o),
(477,43,qs),
(463,30,o),
(453,15,q),
(439,36,o),
(422,54,qs),
(410,66,o),
(396,75,q),
(416,84,o),
(434,97,qs),
(444,106,o),
(453,116,q),
(466,100,o)
);
}
);
width = 961;
}
);
note = or_c_cha;
}
{
glyphname = or_k_iikaar;
layers = (
{
layerId = m01;
shapes = (
{
closed = 1;
nodes = (
(619,200,o),
(616,217,qs),
(606,258,o),
(576,284,qs),
(557,300,o),
(531,308,qs),
(513,313,o),
(480,313,o),
(467,310,qs),
(460,309,o),
(453,306,q),
(334,295,o),
(216,312,q),
(199,319,l),
(158,368,o),
(158,436,qs),
(158,481,o),
(181,523,qs),
(203,563,o),
(272,614,o),
(311,625,qs),
(336,631,o),
(379,631,o),
(396,626,qs),
(444,612,o),
(469,570,qs),
(481,549,o),
(490,511,qs),
(495,486,o),
(502,437,q),
(543,437,l),
(550,437,l),
(593,437,l),
(594,464,ls),
(594,488,o),
(599,512,qs),
(609,568,o),
(637,602,qs),
(652,622,o),
(672,633,qs),
(686,640,o),
(698,641,q),
(698,-10,l),
(786,-10,l),
(786,665,l),
(780,671,l),
(772,678,l),
(766,685,l),
(754,689,ls),
(729,696,o),
(702,696,qs),
(655,696,o),
(614,674,qs),
(569,650,o),
(542,604,q),
(503,656,o),
(433,676,qs),
(398,686,o),
(318,686,o),
(277,675,qs),
(218,660,o),
(125,590,o),
(70,491,o),
(70,433,qs),
(70,381,o),
(93,336,qs),
(107,309,o),
(127,286,qs),
(132,280,l),
(141,277,l),
(147,274,l),
(139,251,o),
(139,227,qs),
(139,194,o),
(168,130,o),
(226,80,o),
(266,69,qs),
(293,62,o),
(344,62,o),
(367,67,qs),
(370,68,o),
(372,69,q),
(372,-12,l),
(460,-12,l),
(460,186,l),
(463,224,o),
(478,243,qs),
(488,256,o),
(494,258,q),
(499,256,o),
(505,251,qs),
(522,237,o),
(529,209,qs),
(531,196,o),
(531,182,qs),
(531,-9,l),
(619,-9,l),
(619,182,ls)
);
},
{
closed = 1;
nodes = (
(292,117,o),
(266,140,qs),
(248,155,o),
(227,202,o),
(227,227,qs),
(227,240,o),
(231,254,q),
(296,247,o),
(358,247,qs),
(372,247,o),
(387,247,q),
(379,232,o),
(375,213,qs),
(372,198,o),
(372,187,qs),
(372,137,l),
(348,117,o)
);
}
);
width = 824;
}
);
note = or_k_iikaar;
}
{
glyphname = or_ka_phalaa;
layers = (
{
layerId = m01;
shapes = (
{
closed = 1;
nodes = (
(-26,-82,o),
(-7,-61,q),
(0,-55,o),
(6,-52,q),
(11,-54,o),
(17,-61,qs),
(30,-75,o),
(35,-98,qs),
(37,-110,o),
(37,-122,qs),
(37,-296,l),
(116,-296,l),
(116,-122,ls),
(116,-107,o),
(113,-92,qs),
(101,-36,o),
(51,-14,qs),
(31,-5,o),
(6,-5,qs),
(-17,-5,o),
(-36,-12,q),
(-145,-22,o),
(-255,-6,qs),
(-291,-1,l),
(-302,-22,ls),
(-316,-51,o),
(-316,-113,o),
(-304,-140,qs),
(-275,-203,o),
(-203,-223,qs),
(-179,-230,o),
(-130,-230,o),
(-108,-224,q),
(-107,-224,o),
(-107,-224,q),
(-107,-297,l),
(-28,-297,l),
(-28,-119,l)
);
},
{
closed = 1;
nodes = (
(-154,-183,qs),
(-178,-183,o),
(-202,-162,qs),
(-219,-148,o),
(-237,-107,o),
(-237,-83,qs),
(-237,-70,o),
(-234,-57,q),
(-177,-63,o),
(-122,-63,qs),
(-107,-63,o),
(-92,-62,q),
(-100,-77,o),
(-103,-95,qs),
(-106,-108,o),
(-107,-119,qs),
(-107,-164,l),
(-129,-183,o)
);
}
);
width = 0;
}
);
note = or_ka_phalaa;
}
{
glyphname = or_kha_phalaa;
layers = (
{
layerId = m01;
shapes = (
{
closed = 1;
nodes = (
(-294,-311,qs),
(-291,-322,o),
(-283,-332,qs),
(-277,-341,o),
(-267,-349,qs),
(-259,-356,o),
(-248,-362,qs),
(-230,-372,o),
(-208,-377,qs),
(-186,-382,o),
(-161,-382,qs),
(-135,-382,o),
(-90,-372,o),
(-71,-361,qs),
(-54,-352,o),
(-31,-328,o),
(-24,-313,qs),
(-20,-305,o),
(-18,-296,qs),
(-16,-288,o),
(-16,-280,qs),
(-15,-273,o),
(-16,-265,qs),
(-17,-259,o),
(-19,-253,qs),
(-23,-237,o),
(-44,-210,o),
(-58,-200,qs),
(-75,-189,o),
(-101,-182,qs),
(-126,-175,o),
(-155,-176,qs),
(-210,-178,ls),
(-216,-178,o),
(-222,-177,qs),
(-227,-176,o),
(-234,-174,o),
(-237,-173,q),
(-240,-171,o),
(-242,-169,qs),
(-247,-164,o),
(-252,-152,o),
(-252,-145,qs),
(-252,-143,o),
(-251,-138,o),
(-251,-136,q),
(-248,-126,o),
(-240,-117,qs),
(-234,-109,o),
(-224,-103,qs),
(-201,-86,o),
(-165,-77,q),
(-164,-85,o),
(-162,-99,o),
(-159,-106,qs),
(-153,-124,o),
(-126,-153,o),
(-107,-163,qs),
(-91,-172,o),
(-73,-176,qs),
(-54,-181,o),
(-33,-180,qs),
(-20,-180,o),
(-8,-178,qs),
(5,-176,o),
(17,-173,q),
(17,-339,l),
(109,-339,l),
(109,-12,l),
(17,-12,l),
(17,-94,l),
(11,-100,o),
(4,-105,qs),
(-2,-110,o),
(-9,-114,qs),
(-17,-118,o),
(-23,-120,qs),
(-31,-123,o),
(-38,-123,qs),
(-50,-122,o),
(-59,-113,qs),
(-66,-106,o),
(-69,-93,qs),
(-75,-71,o),
(-66,-44,q),
(-66,2,l),
(-125,-8,ls),
(-174,-17,o),
(-209,-27,qs),
(-246,-38,o),
(-271,-51,qs),
(-289,-60,o),
(-316,-82,o),
(-326,-94,qs),
(-335,-107,o),
(-344,-133,o),
(-344,-146,qs),
(-344,-161,o),
(-332,-189,o),
(-319,-200,qs),
(-310,-209,o),
(-300,-215,qs),
(-288,-222,o),
(-275,-226,q),
(-286,-239,o),
(-292,-255,qs),
(-298,-270,o),
(-298,-286,qs),
(-298,-299,o)
);
},
{
closed = 1;
nodes = (
(-206,-293,o),
(-206,-280,o),
(-204,-273,qs),
(-202,-266,o),
(-198,-260,q),
(-195,-253,o),
(-184,-241,o),
(-178,-238,qs),
(-172,-234,o),
(-164,-234,q),
(-161,-233,o),
(-155,-233,qs),
(-144,-234,o),
(-138,-235,qs),
(-131,-236,o),
(-126,-240,q),
(-117,-245,o),
(-112,-255,qs),
(-108,-266,o),
(-108,-278,qs),
(-108,-283,o),
(-109,-287,qs),
(-110,-292,o),
(-112,-297,qs),
(-119,-310,o),
(-131,-317,qs),
(-143,-324,o),
(-161,-324,qs),
(-174,-324,o),
(-193,-317,o),
(-198,-310,qs),
(-202,-305,o)
);
}
);
width = 0;
}
);
note = or_kha_phalaa;
}
{
glyphname = or_m_pa;
layers = (
{
layerId = m01;
shapes = (
{
closed = 1;
nodes = (
(557,414,qs),
(583,421,o),
(608,431,q),
(608,310,l),
(486,286,o),
(363,266,qs),
(352,264,o),
(340,264,qs),
(306,264,o),
(273,278,qs),
(213,305,o),
(183,365,qs),
(163,404,o),
(163,448,qs),
(163,512,o),
(204,559,qs),
(234,594,o),
(274,610,q),
(275,603,o),
(280,575,qs),
(284,550,o),
(290,531,qs),
(304,485,o),
(332,456,qs),
(374,412,o),
(440,403,qs),
(455,401,o),
(472,401,qs),
(511,401,o)
);
},
{
closed = 1;
nodes = (
(194,775,l),
(169,716,l),
(271,672,l),
(234,665,o),
(201,648,qs),
(154,624,o),
(123,588,qs),
(70,527,o),
(70,448,qs),
(70,395,o),
(95,347,qs),
(135,269,o),
(220,231,qs),
(274,208,o),
(334,206,q),
(250,162,o),
(200,131,qs),
(121,81,o),
(121,20,qs),
(121,0,o),
(130,-17,qs),
(143,-44,o),
(172,-58,qs),
(180,-62,l),
(197,-65,o),
(206,-65,qs),
(225,-65,o),
(256,-53,o),
(277,-33,o),
(285,-11,o),
(285,10,o),
(281,20,qs),
(271,51,o),
(238,67,qs),
(236,68,l),
(247,78,o),
(266,90,qs),
(315,121,o),
(415,174,qs),
(491,214,o),
(574,236,q),
(608,242,l),
(608,-8,l),
(701,-8,l),
(701,690,l),
(608,690,l),
(608,598,l)
);
},
{
closed = 1;
nodes = (
(520,467,qs),
(491,459,o),
(472,459,qs),
(437,459,o),
(412,485,qs),
(391,506,o),
(381,541,qs),
(376,558,o),
(367,607,o),
(365,620,qs),
(364,625,o),
(362,634,q),
(608,528,l),
(608,503,l),
(566,479,o)
);
}
);
width = 717;
}
);
note = or_m_pa;
}
{
glyphname = or_ma_phalaa;
layers = (
{
anchors = (
{
name = caret_1;
pos = (27,0);
}
);
background = {
shapes = (
{
closed = 1;
nodes = (
(-243,-187,q),
(-229,-224,o),
(-229,-260,qs),
(-229,-282,o),
(-235,-302,qs),
(-247,-347,o),
(-281,-373,qs),
(-308,-395,o),
(-337,-395,qs),
(-358,-395,o),
(-377,-383,qs),
(-401,-367,o),
(-411,-340,qs),
(-416,-326,o),
(-416,-287,o),
(-395,-248,o),
(-357,-219,o),
(-330,-209,qs),
(-288,-192,o)
);
},
{
closed = 1;
nodes = (
(-145,-219,q),
(-119,-215,o),
(-96,-214,q),
(-96,-427,l),
(-8,-427,l),
(-8,-156,l),
(-53,-157,ls),
(-107,-158,o),
(-161,-164,q),
(-162,-163,o),
(-162,-161,q),
(-203,-65,o),
(-294,-10,qs),
(-321,7,l),
(-355,-49,l),
(-303,-81,o),
(-269,-134,q),
(-325,-142,o),
(-377,-162,qs),
(-461,-195,o),
(-489,-250,qs),
(-504,-279,o),
(-504,-310,qs),
(-504,-332,o),
(-497,-352,qs),
(-481,-394,o),
(-441,-421,qs),
(-396,-450,o),
(-337,-450,qs),
(-266,-450,o),
(-212,-407,qs),
(-164,-370,o),
(-148,-312,qs),
(-141,-287,o),
(-141,-260,qs),
(-141,-239,o)
);
}
);
};
backgroundImage = {
imagePath = "../../../../Screenshot 2025-04-30 at 12.00.35 PM.png";
scale = (3.4786,3.4786);
};
layerId = m01;
shapes = (
{
closed = 1;
nodes = (
(-21,-154,l),
(-111,-154,o),
(-150,-154,o),
(-192,-154,cs),
(-226,-154,o),
(-283,-153,o),
(-319,-169,cs),
(-378,-196,o),
(-407,-243,o),
(-407,-295,cs),
(-407,-349,o),
(-365,-403,o),
(-292,-403,cs),
(-170,-403,o),
(-157,-300,o),
(-157,-265,cs),
(-157,-208,o),
(-157,-215,o),
(-157,-92,cs),
(-157,-57,l),
(-227,-57,l),
(-227,-92,ls),
(-227,-215,o),
(-227,-208,o),
(-227,-265,cs),
(-227,-296,o),
(-234,-347,o),
(-292,-347,cs),
(-324,-347,o),
(-337,-318,o),
(-337,-295,cs),
(-337,-261,o),
(-320,-234,o),
(-291,-221,cs),
(-265,-209,o),
(-226,-210,o),
(-192,-210,cs),
(-163,-210,o),
(-135,-210,o),
(-91,-210,c),
(-91,-400,l),
(-21,-400,l)
);
}
);
width = 19;
}
);
note = or_ma_phalaa;
}
{
glyphname = or_ny_c_ikaar;
layers = (
{
layerId = m01;
shapes = (
{
closed = 1;
nodes = (
(613,-223,l),
(634,-232,o),
(650,-250,qs),
(672,-274,l),
(731,-222,l),
(700,-187,o),
(654,-171,qs),
(649,-169,l),
(240,-100,l),
(300,-35,l),
(310,-36,o),
(320,-36,qs),
(383,-36,o),
(453,-4,qs),
(492,13,o),
(526,38,q),
(526,-38,l),
(618,-38,l),
(618,466,l),
(657,511,o),
(657,565,q),
(657,565,o),
(657,566,qs),
(657,604,o),
(616,672,o),
(577,691,qs),
(570,694,l),
(546,699,o),
(530,699,qs),
(502,699,o),
(478,690,q),
(453,732,o),
(401,746,qs),
(380,752,o),
(358,752,qs),
(321,752,o),
(289,737,qs),
(245,715,o),
(230,673,qs),
(223,656,o),
(223,638,qs),
(223,610,o),
(239,586,qs),
(251,567,o),
(273,554,qs),
(315,529,l),
(345,560,ls),
(359,575,o),
(359,595,qs),
(359,601,o),
(358,607,qs),
(352,628,o),
(331,641,qs),
(325,645,o),
(317,648,q),
(317,654,o),
(320,660,qs),
(328,682,o),
(347,691,q),
(353,695,o),
(360,695,o),
(364,694,qs),
(376,690,o),
(399,662,o),
(401,641,q),
(385,531,l),
(469,502,l),
(504,619,l),
(508,626,o),
(521,639,o),
(527,641,q),
(541,632,o),
(551,616,qs),
(565,593,o),
(565,566,q),
(565,566,o),
(565,565,qs),
(565,522,o),
(532,488,qs),
(491,446,o),
(425,446,qs),
(380,446,o),
(260,486,o),
(227,514,qs),
(178,556,o),
(178,611,qs),
(178,632,o),
(196,674,o),
(213,689,q),
(166,745,l),
(140,723,ls),
(112,700,o),
(97,667,qs),
(86,639,o),
(86,611,qs),
(86,537,o),
(153,480,qs),
(198,441,o),
(357,388,o),
(425,388,qs),
(435,388,o),
(445,389,qs),
(490,391,o),
(526,404,q),
(526,138,l),
(472,76,o),
(398,42,qs),
(365,27,o),
(338,23,qs),
(329,22,o),
(304,22,o),
(291,26,qs),
(263,35,o),
(233,80,o),
(233,102,qs),
(233,131,o),
(255,157,qs),
(265,169,o),
(316,215,o),
(327,230,qs),
(345,257,o),
(345,283,qs),
(345,314,o),
(321,340,qs),
(302,360,o),
(271,373,qs),
(229,391,o),
(186,391,qs),
(132,391,o),
(84,362,qs),
(52,343,o),
(37,316,qs),
(29,301,o),
(27,285,qs),
(26,280,o),
(26,262,o),
(31,251,qs),
(42,223,o),
(71,208,qs),
(99,193,l),
(130,252,l),
(124,255,o),
(119,270,o),
(119,276,qs),
(119,303,o),
(150,322,qs),
(169,333,o),
(201,333,o),
(233,319,o),
(241,311,qs),
(253,298,o),
(253,283,qs),
(253,269,o),
(235,243,o),
(186,199,o),
(173,184,qs),
(141,145,o),
(141,102,qs),
(141,68,o),
(162,37,qs),
(182,7,o),
(216,-11,q),
(131,-102,l),
(131,-110,l),
(131,-119,l),
(131,-142,l)
);
}
);
width = 711;
}
);
note = or_ny_c_ikaar;
}
{
glyphname = or_reph.alt;
layers = (
{
layerId = m01;
shapes = (
{
closed = 1;
nodes = (
(-173,654,o),
(-122,640,qs),
(-102,635,l),
(-87,691,l),
(-114,698,o),
(-159,741,o),
(-169,774,qs),
(-175,794,o),
(-175,832,o),
(-171,849,qs),
(-162,885,o),
(-137,914,qs),
(-91,968,o),
(-21,968,qs),
(13,968,o),
(83,937,o),
(110,907,qs),
(131,884,l),
(186,935,l),
(149,975,o),
(41,1023,o),
(-81,1023,o),
(-133,999,qs),
(-182,977,o),
(-215,940,qs),
(-263,885,o),
(-263,812,qs),
(-263,789,o),
(-255,764,qs),
(-242,721,o)
);
}
);
width = 0;
}
);
note = or_reph.alt;
}
{
glyphname = or_ss_pa;
layers = (
{
layerId = m01;
shapes = (
{
closed = 1;
nodes = (
(81,561,o),
(81,524,qs),
(81,494,o),
(103,466,qs),
(126,437,o),
(170,417,q),
(129,398,o),
(107,371,qs),
(84,342,o),
(84,309,qs),
(84,288,o),
(93,269,qs),
(105,241,o),
(133,220,qs),
(159,200,o),
(194,190,q),
(187,180,o),
(182,168,qs),
(177,154,o),
(177,126,o),
(182,114,qs),
(193,83,o),
(231,62,q),
(217,55,o),
(206,46,qs),
(178,21,o),
(178,-12,qs),
(178,-42,o),
(199,-67,qs),
(221,-93,o),
(258,-105,qs),
(283,-113,o),
(312,-113,qs),
(351,-113,o),
(389,-98,qs),
(416,-88,o),
(445,-70,qs),
(459,-61,o),
(472,-52,q),
(472,-65,l),
(565,-65,l),
(565,308,l),
(599,363,l),
(565,384,l),
(565,685,l),
(472,685,l),
(472,653,l),
(450,665,o),
(425,673,qs),
(375,690,o),
(322,690,qs),
(300,690,o),
(278,687,qs),
(211,677,o),
(157,642,q),
(107,673,l),
(70,615,l),
(104,593,l)
);
},
{
closed = 1;
nodes = (
(278,166,q),
(283,171,o),
(288,176,qs),
(291,178,o),
(295,180,qs),
(298,181,o),
(301,182,qs),
(319,186,o),
(337,190,qs),
(356,195,o),
(376,200,qs),
(395,204,o),
(414,209,qs),
(427,212,o),
(440,215,qs),
(448,217,o),
(456,218,qs),
(464,219,o),
(472,220,q),
(472,42,l),
(452,24,ls),
(435,9,o),
(417,-4,qs),
(398,-18,o),
(378,-30,qs),
(360,-41,o),
(341,-49,qs),
(327,-54,o),
(312,-55,q),
(303,-54,o),
(295,-51,qs),
(286,-46,o),
(280,-39,qs),
(275,-33,o),
(273,-26,qs),
(270,-19,o),
(270,-12,qs),
(271,-3,o),
(276,6,q),
(283,14,o),
(292,19,qs),
(296,21,o),
(301,23,qs),
(308,25,o),
(315,28,qs),
(325,31,o),
(334,35,qs),
(348,40,o),
(361,45,q),
(361,61,l),
(361,64,l),
(361,81,l),
(348,86,o),
(334,90,qs),
(324,93,o),
(314,97,qs),
(308,99,o),
(301,101,qs),
(296,103,o),
(292,106,qs),
(282,112,o),
(275,120,q),
(270,130,o),
(269,140,qs),
(269,144,o),
(270,148,qs),
(271,151,o),
(272,155,q),
(275,161,o)
);
},
{
closed = 1;
nodes = (
(472,279,l),
(437,275,o),
(414,271,qs),
(387,265,o),
(306,244,o),
(271,239,o),
(261,239,qs),
(227,239,o),
(204,256,qs),
(189,268,o),
(176,296,o),
(176,309,qs),
(176,341,o),
(210,363,qs),
(223,371,o),
(269,389,o),
(297,400,q),
(297,416,l),
(297,421,l),
(297,438,l),
(264,449,o),
(261,450,qs),
(221,464,o),
(193,481,o),
(186,491,qs),
(173,508,o),
(173,527,qs),
(173,537,o),
(176,548,q),
(472,361,l)
);
},
{
closed = 1;
nodes = (
(322,632,qs),
(352,632,o),
(382,622,qs),
(434,605,o),
(472,563,q),
(472,443,l),
(222,601,l),
(268,632,o)
);
}
);
width = 611;
}
);
note = or_ss_pa;
}
{
glyphname = or_ss_ttha;
layers = (
{
layerId = m01;
shapes = (
{
closed = 1;
nodes = (
(120,550,o),
(114,540,qs),
(93,503,o),
(93,465,qs),
(93,422,o),
(121,385,qs),
(141,360,o),
(198,324,o),
(235,309,q),
(200,295,o),
(147,261,o),
(128,237,qs),
(98,200,o),
(98,157,qs),
(98,132,o),
(107,108,qs),
(122,73,o),
(189,19,o),
(238,6,qs),
(270,-1,o),
(305,-1,qs),
(320,-1,o),
(334,0,qs),
(395,5,o),
(487,40,qs),
(541,61,o),
(592,81,q),
(592,30,l),
(592,30,o),
(592,30,q),
(550,30,o),
(475,-2,o),
(426,-68,o),
(426,-107,qs),
(426,-162,o),
(514,-246,o),
(585,-253,qs),
(596,-254,o),
(607,-254,qs),
(670,-254,o),
(716,-223,qs),
(742,-205,o),
(776,-151,o),
(776,-82,o),
(731,-14,o),
(687,8,q),
(686,9,o),
(684,10,q),
(684,174,l),
(700,163,l),
(741,222,l),
(684,261,l),
(684,692,l),
(592,692,l),
(592,630,l),
(563,650,o),
(528,663,qs),
(470,685,o),
(404,685,qs),
(373,685,o),
(342,680,qs),
(254,665,o),
(181,611,q),
(180,611,o),
(180,610,q),
(110,659,l),
(70,601,l),
(128,561,l)
);
},
{
closed = 1;
nodes = (
(480,614,qs),
(550,587,o),
(592,521,q),
(592,325,l),
(243,567,l),
(247,570,o),
(251,574,q),
(306,614,o),
(366,624,qs),
(385,628,o),
(404,628,qs),
(444,628,o)
);
},
{
closed = 1;
nodes = (
(672,-159,qs),
(663,-174,o),
(630,-196,o),
(607,-196,qs),
(572,-196,o),
(546,-171,qs),
(519,-145,o),
(519,-107,qs),
(519,-80,o),
(535,-58,qs),
(558,-27,o),
(595,-27,qs),
(611,-27,o),
(655,-49,o),
(684,-93,o),
(684,-140,o)
);
},
{
closed = 1;
nodes = (
(592,150,l),
(511,117,o),
(447,92,qs),
(363,61,o),
(321,57,qs),
(313,56,o),
(305,56,qs),
(258,56,o),
(226,83,qs),
(206,99,o),
(197,122,qs),
(190,139,o),
(190,157,qs),
(190,206,o),
(243,240,qs),
(263,252,o),
(313,271,qs),
(331,279,o),
(363,291,q),
(363,307,l),
(363,314,l),
(363,332,l),
(325,344,o),
(321,346,q),
(261,365,o),
(217,393,o),
(205,409,qs),
(185,435,o),
(185,465,qs),
(185,489,o),
(197,513,q),
(592,238,l)
);
}
);
width = 788;
}
);
note = or_ss_ttha;
}
